<?xml version="1.0" standalone="no"?>
<!DOCTYPE svg PUBLIC "-//W3C//DTD SVG 20010904//EN"
 "http://www.w3.org/TR/2001/REC-SVG-20010904/DTD/svg10.dtd">
<svg version="1.0" xmlns="http://www.w3.org/2000/svg"
 width="500.000000pt" height="500.000000pt" viewBox="0 0 500.000000 500.000000"
 preserveAspectRatio="xMidYMid meet">

<g transform="translate(0.000000,500.000000) scale(0.100000,-0.100000)"
fill="#000000" stroke="none">
<path d="M2025 3520 c-11 -5 -38 -9 -61 -9 -61 -1 -74 -21 -74 -114 0 -44 -4
-77 -10 -77 -5 0 -21 17 -34 39 -33 52 -89 97 -147 115 -54 18 -153 21 -208 6
-20 -5 -48 -12 -62 -14 -37 -8 -151 -122 -176 -176 -37 -83 -56 -287 -38 -425
9 -68 32 -114 81 -165 19 -20 34 -38 34 -41 0 -4 -36 -9 -80 -12 -44 -4 -89
-11 -99 -17 -11 -5 -40 -10 -65 -10 -25 0 -48 -4 -51 -10 -9 -14 -53 -12 -58
3 -3 9 -39 12 -138 12 -136 0 -154 -4 -249 -48 -77 -36 -190 -172 -190 -228 0
-10 -4 -19 -9 -19 -13 0 -22 -109 -23 -260 -1 -157 7 -221 38 -286 24 -52 83
-114 107 -114 7 0 17 -4 22 -9 18 -16 249 -20 292 -5 21 8 50 14 65 14 15 0
30 5 33 10 3 6 14 10 24 10 22 0 51 30 51 53 0 11 8 17 23 17 13 0 27 4 32 9
6 5 46 12 90 15 44 4 125 10 180 15 55 4 116 13 135 19 19 7 43 9 53 6 11 -3
30 0 43 7 20 10 29 10 48 -1 20 -10 34 -10 73 0 26 6 122 14 213 16 90 2 180
9 200 14 19 5 95 10 169 10 129 0 134 1 152 24 l19 25 26 -26 c17 -17 29 -22
37 -15 7 5 21 6 32 1 11 -4 65 -8 120 -8 131 0 135 3 135 104 0 43 -4 92 -9
109 -16 53 -40 170 -43 206 -3 35 -3 35 43 38 l46 3 5 -216 c6 -259 3 -252
122 -265 101 -12 194 -4 218 17 16 15 18 36 18 230 l0 214 38 -3 37 -3 7 -129
c3 -71 11 -139 16 -150 5 -12 16 -34 23 -51 33 -71 132 -144 219 -160 68 -13
202 -17 213 -6 6 6 20 11 32 11 12 0 41 20 65 45 24 25 49 44 54 42 5 -2 8
-35 7 -74 -2 -70 -2 -71 32 -97 29 -22 44 -26 100 -26 36 0 69 -5 72 -10 4 -7
41 -10 92 -9 52 1 89 -3 96 -10 6 -6 22 -11 35 -11 13 0 33 -5 44 -11 25 -14
215 -19 241 -7 14 7 17 22 17 88 0 43 -4 82 -10 85 -5 3 -10 15 -10 26 0 26
-48 171 -61 184 -15 15 -11 34 16 69 24 32 25 39 25 179 0 86 -4 148 -10 152
-5 3 -10 14 -10 25 0 23 -105 120 -130 120 -10 0 -21 4 -24 9 -12 19 -175 41
-348 47 l-137 5 -16 -25 c-10 -14 -15 -40 -14 -60 2 -19 1 -38 -3 -41 -3 -3
-30 18 -60 47 -53 52 -101 76 -183 94 l-40 9 -3 129 -3 130 34 35 c47 50 77
96 77 118 0 10 4 23 8 28 5 6 17 37 26 70 10 33 22 70 27 83 5 13 9 53 9 91 0
76 -2 78 -95 106 -68 20 -208 20 -229 0 -20 -20 -32 -19 -49 5 -20 28 -111 50
-209 50 -75 0 -84 -2 -110 -27 -26 -24 -29 -25 -45 -10 -10 8 -40 25 -68 37
-46 20 -64 21 -236 18 -247 -4 -228 13 -228 -216 1 -118 -3 -178 -10 -180 -7
-2 -11 31 -11 103 0 142 -13 190 -61 238 -22 20 -46 37 -54 37 -8 0 -15 5 -15
10 0 12 -306 12 -335 0z m260 -30 c-18 -8 -17 -9 8 -9 16 -1 43 -12 61 -26 18
-14 37 -25 42 -25 16 -1 41 -44 47 -83 3 -20 2 -35 -2 -32 -5 2 -11 -9 -15
-25 -3 -18 -12 -30 -21 -30 -8 0 -15 -6 -15 -13 0 -7 -13 -26 -30 -42 -35 -33
-40 -60 -10 -52 10 3 24 -1 31 -9 6 -8 17 -14 23 -14 20 0 67 -56 61 -72 -3
-8 -1 -27 4 -41 10 -25 6 -32 -50 -87 -33 -32 -75 -64 -92 -69 -18 -6 -111
-12 -207 -15 -113 -3 -176 -8 -178 -15 -7 -22 -24 -11 -18 12 8 26 8 405 0
418 -2 5 3 23 12 40 10 21 12 34 6 38 -6 4 -14 30 -18 59 -6 48 -5 52 14 52
12 0 23 4 26 9 4 5 49 12 102 16 60 5 91 11 83 16 -9 5 20 8 71 8 57 0 78 -3
65 -9z m606 -6 c13 -11 28 -15 48 -11 24 5 29 3 24 -8 -3 -8 -1 -15 4 -15 14
0 59 -42 72 -67 13 -25 15 -163 3 -163 -12 0 -82 -61 -82 -71 0 -5 10 -9 21
-9 26 0 89 -58 89 -82 0 -10 4 -18 9 -18 5 0 11 8 14 18 2 9 4 -25 5 -75 0
-57 -4 -93 -10 -93 -6 0 -8 6 -5 13 7 18 -12 47 -20 30 -2 -7 -11 -13 -19 -13
-8 0 -18 -11 -23 -23 -14 -36 -101 -60 -188 -52 -144 12 -228 13 -241 3 -16
-14 -27 -3 -29 30 -11 154 -10 200 3 231 18 43 18 55 -1 48 -8 -4 -17 -2 -20
4 -9 13 5 50 16 44 5 -4 9 10 9 30 0 22 -4 34 -10 30 -6 -4 -10 14 -10 47 0
37 3 48 10 38 6 -10 9 7 8 50 -1 36 -3 55 -5 42 -3 -12 -8 -20 -12 -17 -5 2
-6 16 -3 30 4 23 8 25 38 19 24 -4 35 -2 39 8 4 11 34 15 126 17 102 2 124 0
140 -15z m473 -59 c-4 -18 -2 -25 9 -25 14 0 19 -26 31 -144 4 -40 23 -44 37
-9 17 45 48 166 44 173 -4 6 7 9 38 11 6 0 30 -4 52 -10 22 -6 62 -11 88 -11
30 0 46 -4 42 -10 -6 -9 8 -14 28 -11 4 0 7 -8 7 -19 0 -13 -7 -20 -20 -20
-13 0 -20 -7 -20 -19 0 -11 -7 -26 -15 -35 -17 -17 -20 -36 -4 -36 6 0 -3 -14
-20 -31 -17 -17 -31 -39 -31 -50 0 -11 -7 -22 -15 -25 -8 -4 -15 -12 -15 -19
0 -6 -20 -30 -45 -53 l-46 -41 19 -38 c13 -25 18 -52 15 -78 -3 -27 -1 -36 5
-26 15 21 18 2 11 -69 -3 -36 -6 -59 -7 -52 -1 7 -6 11 -10 8 -4 -2 -50 1
-102 9 -81 11 -97 11 -111 -1 -20 -18 -29 -9 -29 33 0 22 6 36 16 40 15 6 15
7 0 19 -19 14 -21 28 -11 101 6 40 12 53 28 57 19 5 19 5 1 34 -30 46 -57 76
-84 95 -15 10 -28 33 -35 60 -8 35 -13 42 -32 39 -21 -3 -23 1 -23 47 0 44 -3
51 -20 51 -11 0 -20 7 -20 15 0 8 6 12 14 9 8 -3 17 0 21 6 4 7 -2 14 -14 17
-21 5 -26 14 -14 26 3 4 60 7 125 7 l118 0 -6 -25z m-1652 -2 c-17 -7 -4 -23
19 -23 10 0 19 -4 19 -10 0 -5 8 -10 18 -10 18 0 42 -48 42 -83 0 -9 6 -17 13
-17 9 0 11 -31 6 -137 -4 -76 -7 -138 -8 -139 -17 -15 -41 -50 -41 -59 0 -7
-11 -20 -25 -29 -14 -9 -25 -21 -25 -26 0 -13 -37 -50 -50 -50 -6 0 -24 -10
-41 -22 -27 -20 -42 -22 -125 -22 -56 1 -100 6 -107 13 -6 6 -17 11 -24 11 -8
0 -23 9 -35 20 -12 11 -29 19 -37 18 -12 -2 -15 5 -13 28 2 18 -3 38 -12 47
-19 19 -36 267 -19 267 16 0 25 31 14 44 -6 6 -6 18 -2 25 6 10 10 10 16 1 10
-15 36 35 28 55 -3 10 1 15 15 15 12 0 27 9 34 19 8 11 30 27 51 37 20 10 37
22 37 26 0 5 60 8 133 7 72 -1 126 -4 119 -6z m2025 -125 c-3 -7 -5 -2 -5 12
0 14 2 19 5 13 2 -7 2 -19 0 -25z m-1289 -79 c4 -24 3 -24 -12 -4 -19 24 -20
38 -3 33 6 -3 13 -15 15 -29z m625 -42 c-3 -21 -10 -36 -15 -35 -11 4 -11 8
-2 56 9 45 23 27 17 -21z m102 24 c3 -5 1 -12 -5 -16 -5 -3 -10 1 -10 9 0 18
6 21 15 7z m527 -26 c-3 -28 -7 -33 -17 -25 -10 8 -10 16 -1 35 16 35 23 31
18 -10z m-543 -85 c18 -38 48 -84 66 -103 l32 -33 1 -114 c1 -63 -1 -123 -4
-133 -5 -16 -16 -18 -105 -15 -116 3 -122 11 -60 72 42 41 48 60 57 187 5 64
3 83 -15 119 -21 44 -28 90 -13 90 4 0 23 -31 41 -70z m508 8 c-3 -8 -6 -5 -6
6 -1 11 2 17 5 13 3 -3 4 -12 1 -19z m-13 -43 c-4 -8 -8 -15 -10 -15 -2 0 -4
7 -4 15 0 8 4 15 10 15 5 0 7 -7 4 -15z m-394 -36 c11 -19 10 -20 -9 -9 -12 6
-21 15 -21 20 0 18 19 11 30 -11z m-1429 -142 c-8 -8 -11 -2 -11 19 0 40 14
54 18 19 2 -15 -1 -32 -7 -38z m643 16 c-8 -52 -14 -54 -14 -5 0 23 4 42 10
42 6 0 7 -15 4 -37z m-584 -113 l0 -90 -65 0 c-36 0 -65 4 -65 9 0 4 14 22 30
39 17 18 30 34 30 36 0 12 53 96 61 96 5 0 9 -40 9 -90z m1210 74 c0 -8 -4
-12 -10 -9 -5 3 -10 10 -10 16 0 5 5 9 10 9 6 0 10 -7 10 -16z m-652 -22 c2
-7 -3 -12 -12 -12 -9 0 -16 7 -16 16 0 17 22 14 28 -4z m622 2 c0 -2 -7 -4
-15 -4 -8 0 -15 4 -15 10 0 5 7 7 15 4 8 -4 15 -8 15 -10z m-1784 -15 c19 -22
19 -22 -3 -8 -13 8 -23 17 -23 21 0 12 6 9 26 -13z m504 -19 c0 -5 -4 -10 -10
-10 -5 0 -10 5 -10 10 0 6 5 10 10 10 6 0 10 -4 10 -10z m720 -29 c0 -16 3
-36 6 -45 5 -13 -2 -16 -43 -16 -27 0 -53 3 -57 7 -6 7 72 82 87 83 4 0 7 -13
7 -29z m59 7 c12 -15 11 -18 -3 -18 -10 0 -16 8 -16 22 0 12 1 19 3 17 1 -2 9
-12 16 -21z m-154 2 c-3 -5 -10 -10 -16 -10 -5 0 -9 5 -9 10 0 6 7 10 16 10 8
0 12 -4 9 -10z m-471 -9 c3 -5 -1 -11 -9 -15 -9 -3 -15 0 -15 9 0 16 16 20 24
6z m696 -21 c0 -5 -4 -10 -9 -10 -6 0 -13 5 -16 10 -3 6 1 10 9 10 9 0 16 -4
16 -10z m-1290 -10 c0 -5 -5 -10 -11 -10 -5 0 -7 5 -4 10 3 6 8 10 11 10 2 0
4 -4 4 -10z m76 -7 c-10 -11 -37 -12 -30 -2 3 5 12 9 21 9 9 0 13 -3 9 -7z
m1519 -3 c-3 -5 -19 -10 -36 -10 -16 0 -29 5 -29 10 0 6 16 10 36 10 21 0 33
-4 29 -10z m362 -12 c-3 -8 -6 -5 -6 6 -1 11 2 17 5 13 3 -3 4 -12 1 -19z
m100 16 c-3 -3 -12 -4 -19 -1 -8 3 -5 6 6 6 11 1 17 -2 13 -5z m-1230 -10 c-3
-3 -12 -4 -19 -1 -8 3 -5 6 6 6 11 1 17 -2 13 -5z m-624 -41 c-7 -2 -19 -2
-25 0 -7 3 -2 5 12 5 14 0 19 -2 13 -5z m644 -35 c-3 -24 -10 -68 -16 -98 -7
-30 -15 -82 -20 -115 -5 -33 -14 -73 -20 -90 -6 -16 -13 -51 -16 -77 -6 -45
-8 -48 -36 -48 -22 0 -32 6 -39 25 -14 38 -2 83 24 87 37 5 49 50 52 207 2 80
3 147 4 149 0 1 16 2 36 2 l36 0 -5 -42z m493 -22 c0 -75 -15 -95 -23 -33 -4
23 -9 54 -13 70 -5 23 -3 27 15 27 19 0 21 -5 21 -64z m697 58 c-3 -3 -12 -4
-19 -1 -8 3 -5 6 6 6 11 1 17 -2 13 -5z m-1057 -17 c150 5 255 1 267 -9 8 -6
13 -25 11 -42 -2 -21 1 -30 10 -28 9 1 12 -19 13 -76 1 -54 3 -69 9 -52 6 18
8 4 9 -47 1 -39 6 -75 11 -78 6 -3 10 -26 10 -51 0 -46 15 -61 23 -21 2 12 5
-11 6 -51 0 -46 5 -71 11 -67 6 4 10 -15 10 -49 0 -30 5 -58 10 -61 13 -8 13
-75 1 -75 -5 0 -18 -3 -28 -6 -13 -5 -12 -2 5 10 26 20 31 51 6 42 -9 -3 -25
1 -37 9 -25 17 -152 21 -162 5 -10 -17 -25 -11 -25 10 0 11 7 20 15 20 8 0 15
5 15 10 0 6 -11 10 -25 10 -16 0 -25 6 -25 16 0 10 5 14 15 10 21 -8 31 20 15
40 -9 10 -28 14 -60 13 -25 -1 -51 1 -57 4 -6 4 -16 0 -23 -9 -7 -8 -19 -13
-26 -10 -27 11 -21 -8 8 -23 34 -17 37 -25 42 -116 6 -91 6 -90 -128 -94 -70
-1 -116 2 -116 7 0 6 31 8 75 6 59 -3 82 0 101 13 22 14 27 14 35 2 8 -12 10
-12 19 1 6 10 6 16 0 18 -6 2 -10 20 -10 41 l0 37 -86 -3 c-57 -1 -94 -8 -110
-18 -13 -8 -26 -15 -29 -15 -9 0 -6 48 4 54 11 7 20 65 11 71 -10 6 18 156 35
186 10 17 13 44 10 80 -2 30 -2 46 1 37 12 -39 24 -15 24 47 0 40 4 65 11 65
6 0 10 17 9 43 -4 62 -1 79 11 72 6 -4 13 3 16 15 4 15 10 19 22 14 9 -4 27
-7 41 -7z m705 -13 c131 -4 224 -10 230 -16 7 -7 6 -12 -2 -15 -7 -3 -13 -9
-13 -14 0 -4 7 -6 15 -3 10 4 15 0 15 -15 0 -18 -4 -20 -27 -15 l-28 7 21 -24
c22 -24 29 -75 13 -85 -5 -3 -34 0 -64 6 -67 14 -135 -1 -114 -26 6 -8 21 -14
33 -14 39 0 50 -15 22 -33 -27 -18 -26 -54 2 -71 13 -8 13 -11 -3 -22 -15 -11
-16 -17 -7 -26 8 -8 12 -60 11 -172 -1 -89 -3 -154 -6 -145 -7 27 -68 41 -168
37 -83 -2 -132 7 -97 19 15 6 16 49 2 58 -8 5 -8 11 0 19 5 7 10 24 10 37 -1
13 0 59 2 102 2 44 0 81 -3 83 -15 9 0 97 20 118 42 45 24 57 -78 50 -65 -4
-88 4 -61 21 17 10 11 25 -12 35 -13 5 -17 9 -10 9 6 1 12 8 12 17 0 8 -4 12
-10 9 -17 -11 -11 47 7 67 12 14 25 18 43 14 14 -4 124 -9 245 -12z m-960
-121 c0 -97 -2 -120 -12 -111 -7 6 -10 14 -7 19 3 5 0 18 -6 29 -10 18 -21 20
-103 20 -104 0 -137 -6 -137 -26 0 -7 15 -21 32 -30 l33 -17 -25 -9 c-22 -8
-23 -10 -8 -19 10 -5 46 -9 80 -7 57 3 63 1 75 -22 7 -14 13 -56 13 -95 l0
-70 -26 33 c-24 30 -29 32 -72 28 -26 -3 -57 -5 -70 -5 -50 -2 -28 -60 23 -61
15 0 17 -2 6 -9 -25 -16 7 -22 71 -14 35 4 67 6 72 5 4 -2 14 2 22 9 8 6 20 9
29 6 12 -5 14 -21 9 -83 -3 -47 0 -81 6 -89 17 -21 -5 -28 -37 -12 -21 10 -47
12 -108 6 -44 -4 -119 -8 -167 -8 -82 -1 -138 -14 -138 -33 0 -4 -4 -8 -8 -8
-5 0 -9 153 -11 341 l-2 340 60 -7 c42 -4 61 -3 61 4 0 10 182 20 315 18 l30
-1 0 -122z m1303 108 c11 -6 7 -16 -18 -45 -18 -20 -36 -36 -41 -36 -10 0 -12
73 -2 83 9 10 45 8 61 -2z m-1822 -12 c8 -7 14 -30 14 -56 0 -37 -3 -44 -17
-41 -10 2 -19 12 -21 22 -2 10 -15 30 -28 43 -13 13 -24 27 -24 31 0 13 61 13
76 1z m-197 -31 c11 -10 14 -10 18 0 7 18 31 15 35 -5 2 -10 10 -18 18 -19 51
-3 51 -4 45 -26 -6 -16 -4 -20 8 -15 11 4 13 0 10 -13 -3 -10 2 -33 11 -51 9
-18 16 -51 16 -73 l-1 -41 -18 22 c-14 16 -21 19 -30 10 -6 -6 -11 -18 -11
-26 0 -17 -78 -91 -97 -91 -7 0 -13 -2 -13 -4 0 -2 -3 -11 -6 -20 -5 -13 1
-16 32 -16 39 0 74 -22 74 -48 0 -8 6 -12 15 -8 12 4 14 0 9 -19 -5 -20 -3
-24 9 -19 13 5 16 -2 15 -37 0 -24 5 -45 11 -47 6 -2 11 -16 11 -32 0 -16 4
-30 10 -32 5 -1 11 -29 14 -61 5 -54 4 -58 -19 -69 -14 -6 -31 -7 -42 -2 -15
7 -12 9 13 12 28 3 32 7 36 38 3 29 -1 38 -27 58 -20 16 -36 21 -46 16 -7 -4
-40 -11 -71 -15 -56 -7 -58 -7 -69 21 -6 16 -20 45 -30 65 -11 20 -19 53 -19
73 0 20 -4 44 -9 54 -5 9 -12 25 -15 36 -5 14 -12 17 -34 11 -43 -10 -50 -24
-24 -45 21 -17 24 -30 28 -112 2 -51 5 -102 6 -113 2 -15 -2 -19 -17 -17 -73
10 -176 -2 -187 -22 -17 -30 -26 -16 -31 47 -4 34 -9 77 -13 95 -5 28 -4 32
15 32 27 0 28 20 1 27 -16 4 -20 14 -20 50 0 38 2 44 14 34 10 -9 16 -9 21 -1
4 7 -2 14 -14 17 -14 3 -21 13 -21 29 0 13 4 24 8 24 4 0 8 56 7 124 0 112 2
127 20 143 23 21 107 43 180 47 68 4 73 6 50 16 -14 6 0 9 46 9 39 1 70 -4 78
-11z m2348 -4 c3 -8 12 -14 19 -14 8 0 17 -7 20 -15 4 -8 17 -15 29 -15 13 0
27 -4 30 -10 3 -5 1 -10 -6 -10 -8 0 -8 -4 1 -15 10 -12 15 -13 20 -4 4 6 8 0
8 -14 0 -14 12 -41 26 -60 20 -26 25 -42 20 -61 -3 -14 -3 -34 1 -43 4 -10 7
-54 6 -98 -2 -74 -5 -84 -39 -135 -46 -68 -97 -119 -125 -124 -12 -3 -34 -7
-48 -10 -37 -8 -160 17 -193 39 -52 35 -96 79 -96 97 0 10 -6 18 -13 18 -7 0
-18 15 -25 33 -10 26 -14 29 -22 17 -14 -22 -12 -83 4 -105 17 -25 27 -77 14
-73 -34 12 -49 199 -28 343 5 33 11 75 14 94 2 18 9 38 15 44 6 6 11 20 11 32
0 12 12 28 30 38 16 10 37 28 46 40 16 20 26 22 146 24 104 1 130 -1 135 -13z
m365 7 c-16 -10 147 -25 171 -15 11 4 19 0 23 -10 4 -10 16 -15 34 -14 15 1
36 -4 45 -12 13 -11 18 -11 25 -1 6 10 12 9 29 -8 11 -11 28 -21 36 -21 8 0
15 -4 15 -9 0 -4 10 -19 23 -32 13 -13 30 -40 37 -59 8 -19 19 -38 24 -42 10
-6 12 -31 8 -95 -1 -15 -9 -23 -19 -23 -23 -1 -46 -19 -61 -47 -7 -11 -32 -31
-57 -43 -50 -24 -54 -40 -12 -51 33 -9 86 -50 86 -66 1 -7 5 -13 9 -13 15 0
32 -49 33 -93 0 -33 2 -38 9 -22 10 24 14 8 10 -49 -1 -26 2 -36 9 -32 7 5 11
-5 11 -27 0 -44 -7 -49 -39 -33 -37 19 -109 38 -156 41 -22 1 -45 3 -51 4 -6
0 -11 24 -11 53 -1 29 -6 54 -12 56 -6 2 -9 7 -6 12 4 7 0 36 -20 130 -13 63
-26 80 -62 80 -45 0 -53 -23 -17 -54 24 -20 26 -26 15 -40 -13 -16 -8 -66 7
-66 5 0 7 -26 5 -57 -1 -32 3 -63 9 -70 8 -10 8 -17 -1 -26 -9 -9 -19 -8 -44
2 -46 19 -171 33 -200 22 -25 -10 -58 1 -38 13 7 5 10 118 10 354 0 191 0 353
1 360 0 8 20 12 68 12 40 0 62 -4 54 -9z m-3134 -50 c-10 -19 -18 -54 -18 -78
0 -23 -4 -45 -10 -48 -5 -3 -8 -18 -6 -33 2 -15 1 -19 -1 -9 -5 20 -15 21 -99
6 -92 -16 -124 -56 -110 -134 7 -38 19 -43 43 -20 8 9 18 13 22 10 3 -4 -5
-16 -19 -28 -23 -20 -25 -28 -24 -102 2 -103 2 -100 19 -85 13 10 15 9 15 -10
0 -18 4 -21 23 -16 12 3 28 6 35 6 7 0 10 5 7 10 -4 6 15 10 50 10 l55 0 -3
-37 c-2 -21 1 -49 6 -63 9 -26 18 -65 21 -90 0 -10 -6 -14 -19 -12 -39 6 -119
1 -137 -9 -30 -16 -178 -13 -219 4 -37 16 -89 69 -89 90 0 7 -7 4 -14 -6 -12
-15 -14 -16 -20 -2 -3 8 -1 15 4 15 17 0 11 29 -9 39 -16 9 -19 28 -26 156 -6
130 -5 148 10 165 11 12 14 26 10 39 -4 14 -1 23 9 27 9 3 16 10 16 15 0 4 11
20 25 35 14 15 25 32 25 39 0 39 167 143 206 128 8 -3 17 2 20 12 6 14 21 16
113 14 l107 -3 -18 -35z m-288 9 c0 -5 -4 -10 -10 -10 -5 0 -10 5 -10 10 0 6
5 10 10 10 6 0 10 -4 10 -10z m323 -35 c-7 -21 -13 -19 -13 6 0 11 4 18 10 14
5 -3 7 -12 3 -20z m3547 -70 c0 -8 -2 -15 -4 -15 -2 0 -6 7 -10 15 -3 8 -1 15
4 15 6 0 10 -7 10 -15z m-4027 -24 c-3 -11 -11 -22 -19 -25 -17 -7 -18 -1 -2
24 16 25 28 26 21 1z m1507 -1 c12 -8 9 -10 -12 -10 -15 0 -30 5 -33 10 -8 13
25 13 45 0z m820 0 c0 -5 -2 -10 -4 -10 -3 0 -8 5 -11 10 -3 6 -1 10 4 10 6 0
11 -4 11 -10z m430 -15 c0 -8 -4 -15 -9 -15 -13 0 -22 16 -14 24 11 11 23 6
23 -9z m-475 -27 c13 7 65 1 65 -8 0 -5 -20 -10 -45 -10 -33 0 -47 5 -54 19
-14 25 0 37 17 14 7 -10 15 -17 17 -15z m-694 -13 c0 -13 -41 -19 -41 -7 0 11
20 22 33 18 5 -1 8 -6 8 -11z m1129 -9 c0 -11 -19 -15 -25 -6 -3 5 1 10 9 10
9 0 16 -2 16 -4z m-1685 -36 c3 -5 1 -10 -4 -10 -6 0 -11 5 -11 10 0 6 2 10 4
10 3 0 8 -4 11 -10z m-21 -66 l-8 -29 -7 30 c-3 17 -10 39 -14 50 -8 19 -7 19
14 -1 18 -16 21 -27 15 -50z m-750 32 c-3 -9 -10 -16 -15 -16 -6 0 -5 9 1 21
13 24 24 20 14 -5z m121 3 c3 -4 12 -6 19 -3 8 3 17 1 20 -4 7 -11 -40 -26
-54 -17 -6 3 -14 14 -20 25 -8 15 -7 17 10 13 11 -3 23 -9 25 -14z m-49 -29
c8 0 14 -4 14 -9 0 -8 -23 -6 -60 6 -12 4 -11 7 5 19 18 13 20 13 23 0 2 -9
10 -16 18 -16z m-109 -22 c-3 -7 -5 -2 -5 12 0 14 2 19 5 13 2 -7 2 -19 0 -25z
m844 5 c6 -62 4 -117 -7 -131 -11 -15 -13 -14 -20 13 -4 17 -11 35 -15 41 -11
13 16 84 31 84 6 0 10 -3 11 -7z m-630 -28 c0 -8 0 -40 0 -70 0 -30 0 -59 0
-64 -1 -5 -35 -12 -77 -16 -59 -5 -79 -4 -85 7 -12 19 -11 66 3 104 10 28 18
33 62 42 77 14 96 14 97 -3z m3614 -72 c-10 -29 -20 -10 -16 30 4 41 4 42 12
12 5 -16 7 -36 4 -42z m-2590 37 c3 -5 -3 -10 -14 -10 -12 0 -21 5 -21 10 0 6
6 10 14 10 8 0 18 -4 21 -10z m2565 -66 c0 -3 -7 -12 -15 -21 -20 -19 -32 -9
-15 12 12 15 30 20 30 9z m-2076 -51 c-9 -35 -14 -42 -14 -17 0 11 -5 25 -12
32 -9 9 -7 12 10 12 19 0 21 -4 16 -27z m1432 -71 c-12 -12 -18 8 -10 35 l8
28 4 -28 c2 -16 1 -31 -2 -35z m-1376 -27 c0 -11 7 -13 29 -9 17 4 32 1 36 -6
5 -8 -5 -11 -37 -9 -24 2 -50 -1 -57 -6 -8 -4 -12 -4 -9 1 3 5 8 17 11 27 8
21 27 23 27 2z m1356 -33 c-10 -10 -39 25 -31 38 5 8 12 5 22 -10 8 -12 12
-24 9 -28z m-1531 18 c-28 -12 -95 -12 -95 0 0 6 25 10 58 9 41 0 51 -3 37 -9z
m325 6 c0 -9 -40 -13 -46 -5 -3 5 6 9 20 9 14 0 26 -2 26 -4z m237 -18 c-3 -8
-6 -5 -6 6 -1 11 2 17 5 13 3 -3 4 -12 1 -19z m103 1 c0 -13 -13 -11 -35 5
-18 13 -18 14 8 9 15 -3 27 -9 27 -14z m390 1 c0 -5 -4 -10 -10 -10 -5 0 -10
5 -10 10 0 6 5 10 10 10 6 0 10 -4 10 -10z m87 -21 c-22 -13 -22 -36 1 -42 14
-4 13 -5 -4 -6 -26 -1 -74 21 -74 34 0 6 15 12 32 13 18 2 37 7 42 12 5 5 12
7 15 4 3 -3 -2 -10 -12 -15z m-3045 -51 c-9 -20 -11 -18 -11 22 0 40 2 42 11
23 8 -17 8 -29 0 -45z m2318 42 c0 -18 -6 -20 -57 -19 -48 0 -54 2 -34 10 13
5 32 7 41 4 9 -3 23 1 30 10 16 20 20 19 20 -5z m-250 0 c0 -5 28 -11 63 -13
l62 -3 -66 -2 c-52 -2 -68 1 -73 13 -3 8 -1 15 4 15 6 0 10 -4 10 -10z m460 0
c0 -5 9 -10 20 -10 11 0 20 -7 20 -15 0 -20 -10 -18 -37 4 -25 21 -29 31 -13
31 6 0 10 -4 10 -10z m140 0 c0 -5 -7 -10 -15 -10 -8 0 -15 5 -15 10 0 6 7 10
15 10 8 0 15 -4 15 -10z m481 0 c19 -10 26 -30 12 -30 -5 0 -19 9 -33 20 -26
21 -12 27 21 10z m-1941 -21 c0 -5 -4 -9 -10 -9 -5 0 -10 7 -10 16 0 8 5 12
10 9 6 -3 10 -10 10 -16z m2103 6 c-6 -17 -25 -15 -31 3 -2 7 5 12 17 12 14 0
19 -5 14 -15z m-1713 -4 c0 -5 -21 -11 -47 -14 -64 -9 -313 -11 -320 -3 -5 5
223 11 295 9 6 -1 12 3 12 8 0 5 14 9 30 9 17 0 30 -4 30 -9z m882 -3 c-9 -9
-15 -9 -24 0 -9 9 -7 12 12 12 19 0 21 -3 12 -12z m641 -4 c35 -13 19 -34 -25
-33 -40 1 -41 2 -13 9 25 6 27 8 13 14 -10 5 -18 13 -18 18 0 5 6 7 13 4 6 -3
20 -9 30 -12z m-2323 -9 c0 -8 -7 -15 -16 -15 -14 0 -14 3 -4 15 7 8 14 15 16
15 2 0 4 -7 4 -15z m95 5 c3 -5 1 -10 -4 -10 -6 0 -11 5 -11 10 0 6 2 10 4 10
3 0 8 -4 11 -10z m1799 2 c5 -3 2 -8 -7 -11 -23 -8 -103 -1 -88 8 14 9 83 11
95 3z m-1954 -16 c0 -9 -39 -13 -51 -5 -10 6 -4 9 19 9 17 0 32 -2 32 -4z
m278 -14 c-10 -2 -18 -7 -18 -12 0 -13 -80 -24 -92 -12 -6 6 9 12 41 16 28 4
53 11 56 16 4 6 12 7 18 3 8 -5 7 -9 -5 -11z m2259 -2 c-1 -17 -8 -20 -54 -20
-43 0 -53 3 -53 17 0 13 3 14 12 5 17 -17 53 -15 68 3 17 21 29 19 27 -5z m55
5 c0 -5 -5 -11 -11 -13 -6 -2 -11 4 -11 13 0 9 5 15 11 13 6 -2 11 -8 11 -13z
m-2685 -24 c10 -16 20 -19 50 -14 21 3 50 13 65 21 22 13 30 14 40 4 6 -6 9
-14 6 -18 -12 -11 -83 -24 -135 -24 -50 0 -53 1 -53 25 0 30 11 32 27 6z
m-617 -5 c0 -3 -4 -8 -10 -11 -5 -3 -10 -1 -10 4 0 6 5 11 10 11 6 0 10 -2 10
-4z m3530 -6 c0 -5 -7 -10 -15 -10 -8 0 -15 5 -15 10 0 6 7 10 15 10 8 0 15
-4 15 -10z m-2982 -18 c3 -9 -2 -13 -14 -10 -9 1 -19 9 -22 16 -3 9 2 13 14
10 9 -1 19 -9 22 -16z m-538 -12 c11 -7 12 -12 3 -21 -8 -8 -14 -6 -22 10 -12
22 -5 27 19 11z m55 0 c3 -6 -1 -7 -9 -4 -18 7 -21 14 -7 14 6 0 13 -4 16 -10z
m3598 3 c-7 -2 -19 -2 -25 0 -7 3 -2 5 12 5 14 0 19 -2 13 -5z m-3178 -13 c-3
-5 -11 -10 -16 -10 -6 0 -7 5 -4 10 3 6 11 10 16 10 6 0 7 -4 4 -10z m3095 0
c-8 -5 -19 -10 -25 -10 -5 0 -3 5 5 10 8 5 20 10 25 10 6 0 3 -5 -5 -10z m280
-15 c0 -7 -7 -15 -15 -19 -15 -5 -22 24 -9 37 9 9 24 -2 24 -18z m-335 -1 c9
-9 14 -19 11 -21 -8 -9 -44 7 -50 22 -7 20 18 19 39 -1z m-3075 -9 c0 -8 -4
-15 -9 -15 -13 0 -22 16 -14 24 11 11 23 6 23 -9z m3276 -1 c-3 -9 -6 -20 -6
-25 0 -5 -4 -9 -9 -9 -4 0 -6 11 -3 25 2 14 9 25 14 25 6 0 7 -7 4 -16z
m-3630 -10 c-9 -8 -16 -23 -17 -32 0 -11 -2 -12 -6 -4 -2 6 -10 12 -17 12 -7
0 -21 7 -32 15 -18 15 -17 15 18 13 20 -1 40 1 44 5 4 4 11 7 16 7 5 0 2 -7
-6 -16z m3894 0 c0 -8 -5 -12 -10 -9 -6 4 -8 11 -5 16 9 14 15 11 15 -7z
m-317 -1 c3 -5 -17 -8 -43 -8 -27 0 -52 3 -56 8 -4 4 16 7 44 7 28 0 53 -3 55
-7z m247 2 c0 -3 -12 -10 -27 -16 l-28 -11 30 -12 c32 -13 22 -29 -13 -19 -21
5 -31 41 -15 56 8 8 53 9 53 2z m215 -36 c7 -31 -1 -53 -16 -44 -5 4 -6 17 -3
30 3 12 1 26 -5 29 -16 10 -13 26 3 20 8 -3 18 -19 21 -35z m-3640 21 c6 -10
-9 -19 -39 -24 -8 -1 -19 -5 -22 -9 -4 -4 -26 -7 -48 -6 -32 0 -36 2 -21 9 11
4 29 6 40 3 13 -2 28 4 39 16 21 23 41 27 51 11z m3285 0 c0 -5 -5 -10 -11
-10 -5 0 -7 5 -4 10 3 6 8 10 11 10 2 0 4 -4 4 -10z m270 0 c0 -5 -4 -10 -10
-10 -5 0 -10 5 -10 10 0 6 5 10 10 10 6 0 10 -4 10 -10z m-3771 -24 c-3 -3
-16 -2 -29 1 -22 6 -22 7 -4 14 18 6 43 -5 33 -15z m36 -30 c11 -2 -22 -4 -72
-5 -51 0 -93 3 -93 7 0 7 117 6 165 -2z m3698 -3 c-7 -2 -21 -2 -30 0 -10 3
-4 5 12 5 17 0 24 -2 18 -5z"/>
<path d="M2140 3335 c-10 -12 -10 -18 0 -30 7 -8 16 -13 20 -10 5 3 10 -7 12
-22 4 -34 18 -38 46 -13 11 11 26 20 32 20 5 0 10 8 10 19 0 41 -93 69 -120
36z"/>
<path d="M2148 3103 c-24 -6 -23 -30 1 -42 12 -7 17 -18 14 -34 -8 -41 60 -46
72 -6 4 10 13 19 21 19 19 0 18 24 -3 43 -20 17 -78 28 -105 20z"/>
<path d="M2840 3480 c0 -5 7 -10 15 -10 8 0 15 5 15 10 0 6 -7 10 -15 10 -8 0
-15 -4 -15 -10z"/>
<path d="M2750 3344 c-13 -14 -13 -18 -1 -22 27 -9 54 -43 42 -55 -31 -31 8
-37 46 -7 14 11 31 20 38 20 15 0 8 45 -10 60 -6 5 -32 13 -56 16 -36 5 -48 3
-59 -12z"/>
<path d="M2820 3150 c0 -5 7 -10 15 -10 8 0 15 5 15 10 0 6 -7 10 -15 10 -8 0
-15 -4 -15 -10z"/>
<path d="M2755 3090 c-8 -13 12 -40 30 -40 8 0 10 -9 8 -24 -8 -39 28 -43 66
-7 35 33 38 48 14 67 -21 16 -109 18 -118 4z"/>
<path d="M3193 3325 c0 -22 2 -30 4 -17 2 12 2 30 0 40 -3 9 -5 -1 -4 -23z"/>
<path d="M3324 2905 c8 -8 18 -15 22 -15 3 0 1 7 -6 15 -7 8 -17 15 -22 15 -5
0 -3 -7 6 -15z"/>
<path d="M1540 3272 c-34 -11 -58 -38 -49 -55 5 -9 12 -56 15 -104 6 -85 10
-129 13 -146 0 -5 13 -7 28 -5 19 2 29 10 31 23 2 11 8 30 14 42 6 12 8 38 5
59 -3 20 -2 58 3 85 14 75 -11 117 -60 101z"/>
<path d="M1385 3260 c-3 -5 -1 -10 4 -10 6 0 11 5 11 10 0 6 -2 10 -4 10 -3 0
-8 -4 -11 -10z"/>
<path d="M1488 2833 c6 -2 18 -2 25 0 6 3 1 5 -13 5 -14 0 -19 -2 -12 -5z"/>
<path d="M2384 2534 c-16 -7 -5 -55 19 -81 18 -20 19 -27 9 -60 -16 -51 -17
-65 -7 -87 6 -13 3 -21 -10 -28 -24 -14 -2 -28 48 -28 37 0 50 13 22 24 -11 4
-14 18 -10 66 4 37 2 60 -5 60 -13 0 -13 37 0 45 14 9 12 57 -4 78 -13 16 -38
21 -62 11z"/>
<path d="M2560 2149 c0 -5 5 -7 10 -4 6 3 10 8 10 11 0 2 -4 4 -10 4 -5 0 -10
-5 -10 -11z"/>
<path d="M3111 2255 c1 -19 18 -51 18 -35 0 8 -4 22 -9 30 -5 8 -9 11 -9 5z"/>
<path d="M3027 2136 c-3 -8 -2 -18 4 -22 16 -9 22 2 11 21 -8 15 -10 16 -15 1z"/>
<path d="M3117 2073 c-11 -10 -8 -43 3 -43 6 0 10 11 10 25 0 26 -2 29 -13 18z"/>
<path d="M1755 2540 c-3 -5 -2 -10 4 -10 5 0 13 5 16 10 3 6 2 10 -4 10 -5 0
-13 -4 -16 -10z"/>
<path d="M1198 2453 c-47 -5 -48 -18 -5 -37 17 -8 26 -15 20 -15 -21 -2 -15
-19 9 -27 l23 -7 -23 -8 c-23 -9 -30 -29 -9 -29 29 0 57 13 57 26 0 8 -4 14
-10 14 -5 0 -10 7 -10 15 0 8 5 15 10 15 6 0 10 -5 10 -11 0 -16 44 -6 48 11
4 23 -35 60 -61 58 -12 -1 -39 -3 -59 -5z"/>
<path d="M1400 2350 c0 -5 5 -10 10 -10 6 0 10 5 10 10 0 6 -4 10 -10 10 -5 0
-10 -4 -10 -10z"/>
<path d="M1050 2119 c0 -5 5 -7 10 -4 6 3 10 8 10 11 0 2 -4 4 -10 4 -5 0 -10
-5 -10 -11z"/>
<path d="M3665 2590 c3 -5 8 -10 11 -10 2 0 4 5 4 10 0 6 -5 10 -11 10 -5 0
-7 -4 -4 -10z"/>
<path d="M3542 2425 c-12 -14 -22 -27 -22 -30 0 -2 12 -21 26 -42 24 -36 25
-43 19 -125 l-6 -88 35 0 34 0 7 85 c4 47 5 94 2 105 -3 11 1 23 8 28 7 4 15
20 17 36 2 24 -2 33 -22 43 -39 20 -74 16 -98 -12z"/>
<path d="M4177 2413 c-15 -15 -5 -35 22 -44 35 -12 50 -49 20 -49 -12 0 -19
-7 -19 -20 0 -23 34 -27 75 -8 28 12 30 19 14 35 -8 8 -6 13 9 17 28 9 17 43
-19 61 -29 15 -90 20 -102 8z"/>
<path d="M4344 2014 c3 -9 6 -18 6 -20 0 -3 5 -2 10 1 16 10 12 35 -6 35 -11
0 -14 -5 -10 -16z"/>
<path d="M4490 1985 c0 -8 5 -15 10 -15 6 0 10 7 10 15 0 8 -4 15 -10 15 -5 0
-10 -7 -10 -15z"/>
</g>
</svg>
